<svg width="34" height="34" fill="none" xmlns="http://www.w3.org/2000/svg"><title>Instagram Mark</title><path d="M16.997 11.185A5.807 5.807 0 0011.182 17a5.807 5.807 0 005.815 5.815A5.807 5.807 0 0022.812 17a5.807 5.807 0 00-5.815-5.815zm0 9.594A3.787 3.787 0 0113.217 17a3.787 3.787 0 013.78-3.78 3.787 3.787 0 013.78 3.78 3.787 3.787 0 01-3.78 3.78zM23.05 9.591c-.751 0-1.358.607-1.358 1.359 0 .75.607 1.358 1.358 1.358a1.355 1.355 0 001.255-1.878 1.357 1.357 0 00-1.255-.839zM28.332 17c0-1.565.014-3.116-.073-4.678-.088-1.815-.502-3.425-1.83-4.752-1.329-1.33-2.936-1.74-4.751-1.829-1.565-.088-3.116-.073-4.678-.073-1.565 0-3.116-.015-4.678.073-1.815.088-3.425.502-4.752 1.829-1.33 1.33-1.741 2.937-1.829 4.752-.088 1.565-.074 3.116-.074 4.678 0 1.562-.014 3.116.074 4.678.088 1.815.502 3.425 1.829 4.752 1.33 1.33 2.937 1.74 4.752 1.829 1.565.088 3.116.073 4.678.073 1.565 0 3.116.015 4.678-.073 1.815-.088 3.425-.502 4.752-1.829 1.33-1.33 1.74-2.937 1.829-4.752.09-1.562.073-3.113.073-4.678zm-2.495 6.686a3.604 3.604 0 01-.856 1.298c-.4.4-.783.65-1.299.856-1.49.593-5.032.46-6.685.46-1.653 0-5.197.133-6.688-.457a3.602 3.602 0 01-1.299-.856c-.4-.4-.65-.783-.856-1.299-.59-1.494-.457-5.035-.457-6.688 0-1.653-.133-5.197.457-6.688.207-.516.456-.902.856-1.299.4-.397.783-.65 1.299-.856 1.491-.59 5.035-.457 6.688-.457 1.653 0 5.197-.133 6.688.457.516.207.902.456 1.299.856.4.4.65.783.856 1.299.59 1.491.457 5.035.457 6.688 0 1.653.133 5.194-.46 6.686z" /></svg>
