<svg width="34" height="34" fill="none" xmlns="http://www.w3.org/2000/svg"><title>Twitter Mark</title><path d="M28.663 9.44c-.898.387-1.875.665-2.88.774a4.99 4.99 0 002.2-2.758 9.877 9.877 0 01-3.175 1.209 4.99 4.99 0 00-3.656-1.582 5.002 5.002 0 00-5.002 5.006c0 .387.047.774.123 1.147A14.217 14.217 0 015.958 7.999a4.968 4.968 0 00-.681 2.526c0 1.737.883 3.268 2.23 4.169a5.047 5.047 0 01-2.262-.637v.062a5.004 5.004 0 004.01 4.911c-.43.112-.873.17-1.317.17-.326 0-.634-.032-.945-.076a5.012 5.012 0 004.677 3.471 10.027 10.027 0 01-6.211 2.139c-.42 0-.807-.015-1.209-.062a14.166 14.166 0 007.684 2.245c9.2 0 14.235-7.623 14.235-14.239 0-.217 0-.434-.014-.651a10.776 10.776 0 002.508-2.588z" /></svg>
