<svg width="34" height="34" fill="none" xmlns="http://www.w3.org/2000/svg"><title>YouTube Mark</title><path d="M31.767 8.24c-.34-1.57-1.341-2.808-2.613-3.227C26.85 4.25 17.61 4.25 17.61 4.25s-9.24 0-11.545.763C4.792 5.433 3.79 6.669 3.45 8.24c-.618 2.846-.618 8.786-.618 8.786s0 5.939.618 8.786c.34 1.57 1.341 2.755 2.613 3.175 2.304.763 11.545.763 11.545.763s9.24 0 11.545-.763c1.271-.42 2.273-1.605 2.613-3.175.617-2.847.617-8.786.617-8.786s0-5.94-.617-8.786zm-17.18 14.178V11.633l7.723 5.393-7.723 5.392z" /></svg>
